<?xml version="1.0" standalone="no"?>
<!DOCTYPE svg PUBLIC "-//W3C//DTD SVG 20010904//EN"
 "http://www.w3.org/TR/2001/REC-SVG-20010904/DTD/svg10.dtd">
<svg version="1.0" xmlns="http://www.w3.org/2000/svg"
 width="1000.000000pt" height="1000.000000pt" viewBox="0 0 1000.000000 1000.000000"
 preserveAspectRatio="xMidYMid meet">

<g transform="translate(0.000000,1000.000000) scale(0.100000,-0.100000)"
fill="#000000" stroke="none">
<path d="M4271 9244 c0 -11 3 -14 6 -6 3 7 2 16 -1 19 -3 4 -6 -2 -5 -13z"/>
<path d="M4838 9253 c-2 -4 -1 -42 2 -83 l6 -75 5 75 c4 67 -2 106 -13 83z"/>
<path d="M5455 9250 c-7 -12 2 -30 16 -30 5 0 9 9 9 20 0 21 -15 27 -25 10z"/>
<path d="M6318 9223 c-76 -2 -138 -7 -138 -11 0 -4 56 -5 125 -3 92 2 130 0
141 -10 13 -10 17 -10 24 1 9 15 4 32 -8 28 -4 -1 -69 -4 -144 -5z"/>
<path d="M3540 9210 c0 -5 4 -10 9 -10 6 0 13 5 16 10 3 6 -1 10 -9 10 -9 0
-16 -4 -16 -10z"/>
<path d="M3870 9200 c0 -5 5 -10 11 -10 5 0 7 5 4 10 -3 6 -8 10 -11 10 -2 0
-4 -4 -4 -10z"/>
<path d="M5644 9189 c-1 -3 0 -16 3 -29 6 -22 7 -22 13 -4 6 16 19 20 96 24
l89 5 -98 5 c-55 3 -101 2 -103 -1z"/>
<path d="M5916 9043 c-4 -9 -2 -21 4 -27 7 -7 10 -2 10 17 0 31 -5 34 -14 10z"/>
<path d="M5415 9040 c-17 -7 -14 -9 13 -9 20 -1 31 3 27 9 -7 12 -13 12 -40 0z"/>
<path d="M4181 9014 c0 -11 3 -14 6 -6 3 7 2 16 -1 19 -3 4 -6 -2 -5 -13z"/>
<path d="M5624 8815 c0 -88 2 -123 3 -77 2 46 2 118 0 160 -1 42 -3 5 -3 -83z"/>
<path d="M6462 8885 c0 -16 2 -22 5 -12 2 9 2 23 0 30 -3 6 -5 -1 -5 -18z"/>
<path d="M4590 8854 c0 -21 4 -33 10 -29 6 3 10 19 10 36 0 16 -4 29 -10 29
-5 0 -10 -16 -10 -36z"/>
<path d="M5335 8860 c-7 -12 2 -30 16 -30 5 0 9 9 9 20 0 21 -15 27 -25 10z"/>
<path d="M5217 8853 c18 -2 50 -2 70 0 21 2 7 4 -32 4 -38 0 -55 -2 -38 -4z"/>
<path d="M6163 8725 c0 -22 2 -30 4 -17 2 12 2 30 0 40 -3 9 -5 -1 -4 -23z"/>
<path d="M6432 8700 c0 -14 2 -19 5 -12 2 6 2 18 0 25 -3 6 -5 1 -5 -13z"/>
<path d="M3912 8580 c0 -14 2 -19 5 -12 2 6 2 18 0 25 -3 6 -5 1 -5 -13z"/>
<path d="M6401 8584 c0 -11 3 -14 6 -6 3 7 2 16 -1 19 -3 4 -6 -2 -5 -13z"/>
<path d="M6131 8554 c0 -11 3 -14 6 -6 3 7 2 16 -1 19 -3 4 -6 -2 -5 -13z"/>
<path d="M5651 8514 c0 -11 3 -14 6 -6 3 7 2 16 -1 19 -3 4 -6 -2 -5 -13z"/>
<path d="M5404 8499 c-3 -6 -1 -16 5 -22 8 -8 11 -5 11 11 0 24 -5 28 -16 11z"/>
<path d="M3942 8480 c0 -14 2 -19 5 -12 2 6 2 18 0 25 -3 6 -5 1 -5 -13z"/>
<path d="M5406 8372 c-4 -29 -5 -56 -2 -59 12 -13 17 6 14 58 l-3 54 -9 -53z"/>
<path d="M4560 8379 c0 -17 4 -28 10 -24 6 3 10 17 10 31 0 13 -4 24 -10 24
-5 0 -10 -14 -10 -31z"/>
<path d="M3972 8370 c0 -14 2 -19 5 -12 2 6 2 18 0 25 -3 6 -5 1 -5 -13z"/>
<path d="M3518 8300 c-5 -47 -1 -67 12 -53 4 4 5 28 1 53 l-7 45 -6 -45z"/>
<path d="M3984 8319 c-3 -5 18 -9 46 -9 28 0 49 4 46 9 -3 4 -24 8 -46 8 -22
0 -43 -4 -46 -8z"/>
<path d="M3775 8260 c-3 -5 1 -10 9 -10 9 0 16 5 16 10 0 6 -4 10 -9 10 -6 0
-13 -4 -16 -10z"/>
<path d="M4810 8230 c0 -5 12 -10 28 -9 24 0 25 1 7 9 -27 12 -35 12 -35 0z"/>
<path d="M4538 8223 c7 -3 16 -2 19 1 4 3 -2 6 -13 5 -11 0 -14 -3 -6 -6z"/>
<path d="M5957 8193 c18 -2 50 -2 70 0 21 2 7 4 -32 4 -38 0 -55 -2 -38 -4z"/>
<path d="M2879 7699 c-5 -3 -8 -915 -7 -2249 l3 -2243 90 -29 c50 -16 94 -33
99 -39 6 -5 25 -9 42 -9 18 0 39 -7 48 -15 8 -8 28 -15 43 -15 16 0 38 -7 49
-15 10 -8 33 -15 50 -15 17 0 37 -7 44 -15 7 -8 27 -15 45 -15 18 0 38 -7 45
-15 7 -8 27 -15 44 -15 18 0 41 -7 52 -15 10 -8 33 -15 50 -15 17 0 37 -7 44
-15 7 -8 27 -15 46 -15 18 0 39 -7 48 -15 8 -8 28 -15 43 -15 16 0 38 -7 49
-15 10 -8 31 -15 45 -15 15 0 37 -9 51 -19 16 -13 33 -18 47 -14 14 3 29 -1
42 -13 11 -10 32 -17 48 -16 15 1 37 -6 49 -17 13 -11 31 -16 46 -14 16 3 31
-2 46 -17 14 -14 28 -19 41 -15 11 4 33 -2 52 -13 17 -10 40 -17 50 -15 10 3
30 -3 45 -13 15 -10 36 -17 48 -16 11 2 32 -7 47 -18 16 -13 35 -19 43 -16 9
4 31 -3 48 -13 18 -11 41 -18 52 -15 12 3 29 -3 44 -16 15 -13 32 -19 46 -16
13 4 32 -2 48 -15 15 -12 33 -18 44 -15 11 4 30 -2 46 -15 18 -14 35 -19 50
-15 16 4 29 0 40 -13 21 -23 112 -26 137 -4 9 7 30 15 47 17 16 3 41 12 55 20
13 9 31 14 40 10 9 -3 29 4 46 17 18 13 36 19 46 15 10 -3 31 2 50 14 18 11
40 17 49 14 10 -4 25 1 36 11 10 9 32 18 47 19 15 1 40 10 55 20 16 10 35 15
47 11 13 -4 31 2 50 16 17 13 36 19 46 15 10 -3 27 2 42 14 17 13 33 18 50 14
17 -5 30 0 45 16 15 16 27 20 45 15 19 -4 32 0 48 15 16 15 30 20 45 15 15 -5
29 0 45 15 16 15 30 20 44 15 13 -4 31 1 50 16 18 13 36 19 46 15 10 -3 32 3
51 15 19 11 42 18 50 15 9 -3 28 3 42 15 18 13 34 18 50 14 18 -4 30 0 45 15
14 16 27 20 47 16 20 -4 33 1 46 15 12 14 27 19 43 16 16 -3 35 2 50 15 17 13
33 17 49 13 18 -4 30 0 44 15 15 16 27 20 45 15 19 -4 32 0 49 16 16 15 30 20
47 15 17 -4 30 0 42 15 11 11 25 17 33 14 7 -2 26 2 41 9 29 15 127 49 173 60
l28 6 2 2243 c2 1233 0 2245 -3 2250 -6 8 -4216 15 -4230 6z m4061 -169 c13
-8 15 -253 18 -2090 1 -1280 -1 -2088 -7 -2099 -9 -17 -69 -39 -301 -111 -58
-18 -119 -39 -137 -47 -17 -7 -36 -13 -43 -13 -15 0 -102 -28 -147 -47 -17 -7
-36 -13 -43 -13 -6 0 -44 -11 -83 -24 -40 -13 -126 -40 -192 -61 -66 -21 -136
-43 -155 -50 -19 -7 -62 -21 -95 -30 -33 -10 -74 -24 -92 -32 -17 -7 -36 -13
-43 -13 -11 0 -88 -23 -135 -41 -34 -12 -219 -71 -250 -80 -16 -4 -61 -19
-100 -34 -102 -39 -175 -38 -292 3 -50 17 -97 32 -103 32 -7 0 -26 6 -43 14
-18 7 -66 23 -107 35 -41 12 -83 27 -92 32 -10 5 -25 9 -34 9 -9 0 -30 6 -47
14 -18 7 -66 23 -107 35 -41 13 -84 26 -95 30 -47 18 -215 71 -226 71 -6 0
-25 6 -42 13 -44 19 -224 77 -238 77 -6 0 -25 6 -42 13 -44 19 -224 77 -238
77 -6 0 -25 6 -42 13 -45 19 -132 47 -147 47 -7 0 -26 6 -43 13 -18 8 -57 22
-87 31 -30 10 -61 23 -67 28 -10 8 -13 440 -13 2099 0 1978 1 2089 18 2098 23
14 3871 15 3892 1z"/>
<path d="M3130 7433 c0 -5 0 -910 0 -2013 l0 -2005 21 -17 c12 -10 31 -18 43
-18 11 -1 32 -7 46 -15 14 -8 33 -14 43 -15 11 0 33 -6 50 -14 18 -7 86 -30
152 -50 66 -21 128 -42 137 -47 10 -5 25 -9 34 -9 9 0 30 -6 47 -13 18 -8 59
-22 92 -31 33 -10 75 -24 93 -32 18 -8 40 -14 48 -14 9 0 30 -6 47 -13 37 -16
218 -74 260 -83 15 -3 30 -10 33 -15 3 -5 14 -9 26 -9 11 0 34 -6 51 -14 18
-7 86 -30 152 -51 66 -20 129 -40 140 -45 11 -4 74 -24 140 -45 66 -20 130
-42 143 -48 33 -16 112 -12 147 7 17 9 36 16 44 16 15 0 101 27 148 47 17 7
36 13 42 13 14 0 194 58 238 77 17 7 35 13 40 13 11 -1 290 90 330 107 17 7
35 13 40 13 11 -1 290 90 330 107 17 7 36 13 42 13 14 0 194 58 238 77 17 7
36 13 42 13 14 0 220 69 244 81 16 9 17 113 15 2022 l-3 2012 -1867 3 c-1028
1 -1868 -1 -1868 -5z m2314 -453 c55 -49 69 -89 65 -189 l-4 -86 51 -6 c28 -4
60 -12 72 -18 12 -6 22 -9 22 -6 0 11 -54 54 -82 66 -47 19 -28 75 20 62 31
-8 29 17 -4 57 -23 26 -25 35 -16 55 17 38 56 42 93 11 17 -14 43 -29 57 -32
42 -10 111 -72 133 -120 36 -76 81 -107 229 -159 74 -27 120 -62 120 -91 0 -8
9 -28 21 -43 19 -26 20 -32 7 -57 -7 -16 -27 -35 -43 -43 -37 -18 -112 -35
-145 -32 -175 12 -210 12 -239 -3 -16 -9 -39 -16 -50 -16 -27 0 -61 -46 -61
-84 0 -18 -11 -65 -25 -106 -13 -41 -25 -83 -25 -92 0 -10 -16 -35 -35 -57
-23 -25 -35 -49 -35 -67 -1 -16 -7 -40 -15 -54 -8 -14 -14 -35 -15 -48 0 -29
-43 -97 -75 -118 -36 -24 -38 -44 -10 -121 14 -39 25 -84 25 -101 0 -23 10
-42 39 -70 21 -21 48 -57 60 -79 21 -42 21 -42 1 -87 -25 -58 -98 -132 -144
-144 -19 -6 -57 -29 -83 -51 -27 -23 -66 -52 -87 -64 -22 -12 -42 -29 -46 -37
-58 -119 -153 -247 -225 -300 -61 -45 -68 -67 -53 -170 16 -106 15 -111 -14
-133 l-27 -20 -47 20 c-26 11 -64 37 -84 57 -35 34 -39 35 -54 21 -9 -9 -16
-26 -16 -38 -1 -28 -84 -119 -130 -142 -19 -10 -60 -39 -92 -64 -85 -69 -101
-81 -112 -81 -12 0 -116 -111 -117 -125 -1 -5 0 -20 1 -33 2 -34 -26 -72 -54
-72 -27 0 -40 -13 -51 -50 -4 -14 -13 -38 -21 -55 -7 -16 -17 -52 -21 -80 -7
-41 -13 -51 -35 -59 -27 -9 -31 -8 -100 29 -10 5 -18 17 -18 27 0 9 -11 30
-25 46 -29 35 -33 91 -10 135 13 25 13 33 0 64 -23 55 -19 100 11 128 36 34
104 65 141 65 17 0 36 7 43 15 7 8 22 15 34 15 11 1 30 8 42 18 27 22 94 120
94 137 0 7 15 35 33 61 17 27 41 66 52 87 10 22 30 48 44 59 14 10 31 32 37
47 9 23 25 32 84 51 96 31 120 57 120 129 0 54 1 55 60 109 33 30 60 60 60 65
0 12 56 160 76 203 38 78 35 134 -6 134 -44 0 -130 60 -130 92 0 10 -4 18 -10
18 -18 0 -50 79 -50 122 0 27 9 59 25 87 14 23 25 56 25 71 0 18 8 34 20 43
16 11 19 21 15 40 -5 19 0 31 22 51 15 15 38 29 50 32 12 3 26 19 32 35 5 16
16 32 24 35 12 4 13 23 9 92 -3 62 0 105 12 150 26 103 23 119 -40 203 -31 41
-59 77 -62 81 -4 4 -47 14 -96 23 -49 8 -97 21 -105 29 -16 14 -36 18 -186 35
-44 5 -98 16 -120 24 -22 8 -82 31 -133 51 -51 19 -98 33 -105 30 -7 -2 -23
-24 -36 -48 -13 -26 -34 -49 -51 -56 -15 -6 -40 -25 -56 -41 -15 -16 -38 -29
-50 -29 -12 0 -27 -7 -34 -15 -15 -19 -56 -20 -63 -2 -7 19 8 86 28 127 22 43
114 140 134 140 8 0 39 14 68 30 30 17 59 28 64 24 17 -10 228 -28 304 -25 46
1 84 -4 107 -14 53 -21 206 -21 253 2 33 16 37 16 70 0 45 -21 82 -21 120 0
19 10 55 17 99 17 66 1 70 2 86 31 9 17 17 54 18 84 2 62 34 133 66 150 11 7
32 18 46 26 17 10 55 15 112 15 83 0 89 -2 122 -30z m-135 -2787 c100 -30 155
-87 181 -190 11 -41 11 -62 1 -105 -22 -99 -78 -156 -188 -191 -49 -16 -57
-16 -105 -1 -81 24 -117 46 -149 86 -32 40 -59 115 -59 166 0 80 83 190 175
232 51 24 75 24 144 3z"/>
<path d="M3042 3090 c0 -14 2 -19 5 -12 2 6 2 18 0 25 -3 6 -5 1 -5 -13z"/>
<path d="M6873 3052 c3 -16 2 -54 -2 -85 -6 -45 -5 -57 6 -57 10 0 13 21 13
85 0 56 -4 85 -11 85 -7 0 -9 -11 -6 -28z"/>
<path d="M3035 2930 c-4 -6 -3 -16 3 -22 6 -6 12 -6 17 2 4 6 3 16 -3 22 -6 6
-12 6 -17 -2z"/>
<path d="M3118 2883 c7 -3 16 -2 19 1 4 3 -2 6 -13 5 -11 0 -14 -3 -6 -6z"/>
<path d="M3208 2853 c7 -3 16 -2 19 1 4 3 -2 6 -13 5 -11 0 -14 -3 -6 -6z"/>
<path d="M6698 2853 c7 -3 16 -2 19 1 4 3 -2 6 -13 5 -11 0 -14 -3 -6 -6z"/>
<path d="M3458 2763 c7 -3 16 -2 19 1 4 3 -2 6 -13 5 -11 0 -14 -3 -6 -6z"/>
<path d="M3628 2703 c7 -3 16 -2 19 1 4 3 -2 6 -13 5 -11 0 -14 -3 -6 -6z"/>
<path d="M3718 2673 c7 -3 16 -2 19 1 4 3 -2 6 -13 5 -11 0 -14 -3 -6 -6z"/>
<path d="M6188 2673 c7 -3 16 -2 19 1 4 3 -2 6 -13 5 -11 0 -14 -3 -6 -6z"/>
<path d="M3968 2583 c7 -3 16 -2 19 1 4 3 -2 6 -13 5 -11 0 -14 -3 -6 -6z"/>
<path d="M4048 2553 c6 -2 18 -2 25 0 6 3 1 5 -13 5 -14 0 -19 -2 -12 -5z"/>
<path d="M4138 2523 c7 -3 16 -2 19 1 4 3 -2 6 -13 5 -11 0 -14 -3 -6 -6z"/>
<path d="M5768 2523 c7 -3 16 -2 19 1 4 3 -2 6 -13 5 -11 0 -14 -3 -6 -6z"/>
<path d="M4228 2493 c7 -3 16 -2 19 1 4 3 -2 6 -13 5 -11 0 -14 -3 -6 -6z"/>
<path d="M5678 2493 c7 -3 16 -2 19 1 4 3 -2 6 -13 5 -11 0 -14 -3 -6 -6z"/>
<path d="M4558 2373 c6 -2 18 -2 25 0 6 3 1 5 -13 5 -14 0 -19 -2 -12 -5z"/>
<path d="M4648 2343 c7 -3 16 -2 19 1 4 3 -2 6 -13 5 -11 0 -14 -3 -6 -6z"/>
<path d="M5258 2343 c7 -3 16 -2 19 1 4 3 -2 6 -13 5 -11 0 -14 -3 -6 -6z"/>
<path d="M4738 2313 c7 -3 16 -2 19 1 4 3 -2 6 -13 5 -11 0 -14 -3 -6 -6z"/>
<path d="M4818 2283 c7 -3 16 -2 19 1 4 3 -2 6 -13 5 -11 0 -14 -3 -6 -6z"/>
<path d="M4908 2253 c6 -2 18 -2 25 0 6 3 1 5 -13 5 -14 0 -19 -2 -12 -5z"/>
<path d="M4988 2253 c6 -2 18 -2 25 0 6 3 1 5 -13 5 -14 0 -19 -2 -12 -5z"/>
<path d="M2045 1781 c-3 -5 -1 -12 5 -16 5 -3 10 1 10 9 0 18 -6 21 -15 7z"/>
<path d="M4745 1770 c3 -5 8 -10 11 -10 2 0 4 5 4 10 0 6 -5 10 -11 10 -5 0
-7 -4 -4 -10z"/>
<path d="M4960 1770 c0 -12 8 -12 35 0 18 8 17 9 -7 9 -16 1 -28 -3 -28 -9z"/>
<path d="M5570 1776 c0 -2 7 -9 15 -16 12 -10 15 -10 15 4 0 9 -7 16 -15 16
-8 0 -15 -2 -15 -4z"/>
<path d="M5774 1771 c5 -8 56 -3 56 5 0 2 -14 4 -31 4 -16 0 -28 -4 -25 -9z"/>
<path d="M6660 1770 c36 -12 60 -12 60 0 0 6 -19 10 -42 9 -37 -1 -39 -2 -18
-9z"/>
<path d="M6905 1770 c3 -5 10 -10 16 -10 5 0 9 5 9 10 0 6 -7 10 -16 10 -8 0
-12 -4 -9 -10z"/>
<path d="M7415 1770 c132 -3 244 -2 249 2 6 5 -102 7 -240 6 l-249 -2 240 -6z"/>
<path d="M3668 1752 c-2 -4 -1 -97 2 -207 l6 -200 2 191 c1 118 6 194 13 201
7 7 6 12 -5 16 -8 3 -17 3 -18 -1z"/>
<path d="M4391 1744 c0 -11 3 -14 6 -6 3 7 2 16 -1 19 -3 4 -6 -2 -5 -13z"/>
<path d="M6433 1695 c0 -38 2 -53 4 -32 2 20 2 52 0 70 -2 17 -4 1 -4 -38z"/>
<path d="M1320 1740 c0 -5 4 -10 9 -10 6 0 13 5 16 10 3 6 -1 10 -9 10 -9 0
-16 -4 -16 -10z"/>
<path d="M1652 1730 c0 -14 2 -19 5 -12 2 6 2 18 0 25 -3 6 -5 1 -5 -13z"/>
<path d="M5588 1670 c-7 -43 -4 -59 8 -48 3 3 4 26 2 49 l-3 44 -7 -45z"/>
<path d="M2878 1683 c7 -3 16 -2 19 1 4 3 -2 6 -13 5 -11 0 -14 -3 -6 -6z"/>
<path d="M3168 1683 c7 -3 16 -2 19 1 4 3 -2 6 -13 5 -11 0 -14 -3 -6 -6z"/>
<path d="M8108 1683 c7 -3 16 -2 19 1 4 3 -2 6 -13 5 -11 0 -14 -3 -6 -6z"/>
<path d="M8398 1683 c7 -3 16 -2 19 1 4 3 -2 6 -13 5 -11 0 -14 -3 -6 -6z"/>
<path d="M4748 1657 c-12 -29 -10 -73 3 -60 6 6 9 26 7 44 -2 26 -5 30 -10 16z"/>
<path d="M4964 1470 c0 -113 2 -159 3 -102 2 56 2 148 0 205 -1 56 -3 10 -3
-103z"/>
<path d="M5774 1475 c0 -99 2 -138 3 -87 2 51 2 132 0 180 -1 48 -3 6 -3 -93z"/>
<path d="M1681 1624 c0 -11 3 -14 6 -6 3 7 2 16 -1 19 -3 4 -6 -2 -5 -13z"/>
<path d="M5545 1570 c-30 -8 -30 -8 8 -9 20 0 37 4 37 9 0 11 -2 11 -45 0z"/>
<path d="M1961 1544 c0 -11 3 -14 6 -6 3 7 2 16 -1 19 -3 4 -6 -2 -5 -13z"/>
<path d="M5256 1491 c-4 -7 -5 -15 -2 -18 9 -9 19 4 14 18 -4 11 -6 11 -12 0z"/>
<path d="M6703 1425 c0 -44 2 -61 4 -37 2 23 2 59 0 80 -2 20 -4 1 -4 -43z"/>
<path d="M2372 1405 c0 -44 2 -62 7 -50 4 11 5 43 1 70 -7 49 -7 49 -8 -20z"/>
<path d="M7415 1450 c-3 -5 -1 -18 4 -27 9 -16 10 -14 11 10 0 28 -5 34 -15
17z"/>
<path d="M1741 1424 c0 -11 3 -14 6 -6 3 7 2 16 -1 19 -3 4 -6 -2 -5 -13z"/>
<path d="M7841 1414 c0 -11 3 -14 6 -6 3 7 2 16 -1 19 -3 4 -6 -2 -5 -13z"/>
<path d="M8682 1390 c0 -14 2 -19 5 -12 2 6 2 18 0 25 -3 6 -5 1 -5 -13z"/>
<path d="M5461 1390 c-14 -8 -7 -30 9 -30 11 0 21 28 12 34 -5 3 -14 1 -21 -4z"/>
<path d="M5337 1383 c18 -2 50 -2 70 0 21 2 7 4 -32 4 -38 0 -55 -2 -38 -4z"/>
<path d="M2591 1354 c0 -11 3 -14 6 -6 3 7 2 16 -1 19 -3 4 -6 -2 -5 -13z"/>
<path d="M3450 1355 c0 -8 5 -15 10 -15 6 0 10 7 10 15 0 8 -4 15 -10 15 -5 0
-10 -7 -10 -15z"/>
<path d="M4241 1354 c0 -11 3 -14 6 -6 3 7 2 16 -1 19 -3 4 -6 -2 -5 -13z"/>
<path d="M5466 1312 c-4 -18 -5 -36 -2 -39 11 -12 17 5 14 39 l-3 33 -9 -33z"/>
<path d="M7812 1310 c0 -19 2 -27 5 -17 2 9 2 25 0 35 -3 9 -5 1 -5 -18z"/>
<path d="M1951 1194 c0 -11 3 -14 6 -6 3 7 2 16 -1 19 -3 4 -6 -2 -5 -13z"/>
<path d="M4421 1194 c0 -11 3 -14 6 -6 3 7 2 16 -1 19 -3 4 -6 -2 -5 -13z"/>
<path d="M4718 1187 c-12 -29 -10 -73 3 -60 6 6 9 26 7 44 -2 26 -5 30 -10 16z"/>
<path d="M3191 1174 c0 -11 3 -14 6 -6 3 7 2 16 -1 19 -3 4 -6 -2 -5 -13z"/>
<path d="M7812 1165 c0 -16 2 -22 5 -12 2 9 2 23 0 30 -3 6 -5 -1 -5 -18z"/>
<path d="M3450 1164 c0 -8 5 -12 10 -9 6 3 10 10 10 16 0 5 -4 9 -10 9 -5 0
-10 -7 -10 -16z"/>
<path d="M5226 1134 c-4 -15 -2 -32 3 -37 8 -8 11 0 11 26 0 44 -5 47 -14 11z"/>
<path d="M8682 1140 c0 -14 2 -19 5 -12 2 6 2 18 0 25 -3 6 -5 1 -5 -13z"/>
<path d="M2592 1130 c0 -14 2 -19 5 -12 2 6 2 18 0 25 -3 6 -5 1 -5 -13z"/>
<path d="M3934 985 c0 -93 2 -133 3 -88 2 45 2 122 0 170 -1 48 -3 12 -3 -82z"/>
<path d="M4290 1139 c0 -5 5 -7 10 -4 6 3 10 8 10 11 0 2 -4 4 -10 4 -5 0 -10
-5 -10 -11z"/>
<path d="M6191 1134 c0 -11 3 -14 6 -6 3 7 2 16 -1 19 -3 4 -6 -2 -5 -13z"/>
<path d="M7393 1085 c0 -33 2 -45 4 -27 2 18 2 45 0 60 -2 15 -4 0 -4 -33z"/>
<path d="M1692 1110 c0 -14 2 -19 5 -12 2 6 2 18 0 25 -3 6 -5 1 -5 -13z"/>
<path d="M4061 1054 c0 -11 3 -14 6 -6 3 7 2 16 -1 19 -3 4 -6 -2 -5 -13z"/>
<path d="M4260 1049 c0 -5 5 -7 10 -4 6 3 10 8 10 11 0 2 -4 4 -10 4 -5 0 -10
-5 -10 -11z"/>
<path d="M6037 993 c-2 -32 -1 -62 4 -67 5 -6 9 18 9 57 0 37 -2 67 -4 67 -2
0 -6 -26 -9 -57z"/>
<path d="M1722 1010 c0 -14 2 -19 5 -12 2 6 2 18 0 25 -3 6 -5 1 -5 -13z"/>
<path d="M5520 1020 c0 -5 5 -10 10 -10 6 0 10 5 10 10 0 6 -4 10 -10 10 -5 0
-10 -4 -10 -10z"/>
<path d="M2343 930 c0 -36 2 -50 4 -32 2 17 2 47 0 65 -2 17 -4 3 -4 -33z"/>
<path d="M4241 964 c0 -11 3 -14 6 -6 3 7 2 16 -1 19 -3 4 -6 -2 -5 -13z"/>
<path d="M4091 954 c0 -11 3 -14 6 -6 3 7 2 16 -1 19 -3 4 -6 -2 -5 -13z"/>
<path d="M6672 890 c-1 -26 -7 -51 -14 -58 -9 -9 -9 -15 0 -24 19 -19 23 -4
19 63 -2 50 -4 54 -5 19z"/>
<path d="M1752 900 c0 -14 2 -19 5 -12 2 6 2 18 0 25 -3 6 -5 1 -5 -13z"/>
<path d="M1297 826 c-7 -50 -3 -67 12 -50 5 5 6 29 2 54 l-7 45 -7 -49z"/>
<path d="M4115 860 c-11 -18 3 -24 48 -21 43 3 66 15 54 28 -4 4 -13 1 -19 -5
-15 -15 -50 -16 -65 -1 -8 8 -13 8 -18 -1z"/>
<path d="M1764 849 c-3 -5 15 -9 40 -9 25 0 46 4 46 9 0 4 -18 8 -40 8 -22 0
-43 -4 -46 -8z"/>
<path d="M3168 813 c7 -3 16 -2 19 1 4 3 -2 6 -13 5 -11 0 -14 -3 -6 -6z"/>
<path d="M8098 813 c7 -3 16 -2 19 1 4 3 -2 6 -13 5 -11 0 -14 -3 -6 -6z"/>
<path d="M3925 800 c-7 -12 2 -30 16 -30 5 0 9 9 9 20 0 21 -15 27 -25 10z"/>
<path d="M5517 796 c-6 -15 1 -26 15 -26 4 0 8 9 8 20 0 23 -15 27 -23 6z"/>
<path d="M7350 795 c-10 -12 -10 -15 4 -15 9 0 16 7 16 15 0 8 -2 15 -4 15 -2
0 -9 -7 -16 -15z"/>
<path d="M1555 790 c-3 -5 1 -10 10 -10 9 0 13 5 10 10 -3 6 -8 10 -10 10 -2
0 -7 -4 -10 -10z"/>
<path d="M6335 790 c-4 -6 9 -10 31 -10 42 0 42 4 2 14 -15 3 -30 2 -33 -4z"/>
<path d="M7115 790 c-3 -5 3 -10 15 -10 12 0 18 5 15 10 -3 6 -10 10 -15 10
-5 0 -12 -4 -15 -10z"/>
<path d="M3003 783 c15 -2 37 -2 50 0 12 2 0 4 -28 4 -27 0 -38 -2 -22 -4z"/>
<path d="M7218 783 c23 -2 59 -2 80 0 20 2 1 4 -43 4 -44 0 -61 -2 -37 -4z"/>
<path d="M8233 783 c15 -2 37 -2 50 0 12 2 0 4 -28 4 -27 0 -38 -2 -22 -4z"/>
<path d="M4682 767 c-9 -11 -10 -17 -2 -22 15 -9 23 -1 18 21 -3 15 -4 16 -16
1z"/>
<path d="M4421 754 c0 -11 3 -14 6 -6 3 7 2 16 -1 19 -3 4 -6 -2 -5 -13z"/>
<path d="M4950 760 c0 -5 7 -10 15 -10 8 0 15 5 15 10 0 6 -7 10 -15 10 -8 0
-15 -4 -15 -10z"/>
<path d="M2308 753 c6 -2 18 -2 25 0 6 3 1 5 -13 5 -14 0 -19 -2 -12 -5z"/>
</g>
</svg>
